<svg xmlns="http://www.w3.org/2000/svg" fill="none" viewBox="0 0 283 36" height="36" width="283">
<path fill="black" d="M15.4521 13.7817V3.57973H22.492V13.7817C23.2975 11.9322 25.0873 10.2915 26.9069 9.18782H34.5733C34.525 9.22393 34.4761 9.26044 34.4267 9.29733C31.9451 11.1501 28.1598 13.9763 28.1598 16.2576C28.1598 17.3912 29.5618 17.6298 30.3672 17.6298H35.1997V23.1782H27.6229C25.9225 23.1782 23.4764 22.5816 22.492 19.9566V27.3843H15.4521V19.9566C14.4677 22.5518 12.0216 23.1782 10.3213 23.1782H2.74439V17.6298H7.57689C8.38231 17.6298 9.78434 17.421 9.78434 16.2576C9.78434 13.9763 5.99899 11.1501 3.51748 9.29733C3.46806 9.26044 3.41916 9.22393 3.37082 9.18782H11.0372C12.8569 10.2915 14.6467 11.9322 15.4521 13.7817ZM37.9441 16.3173C37.9441 7.30851 29.4425 9.09931e-05 18.9721 9.09931e-05C8.4718 -0.0297393 0 7.27868 0 16.3173C0 25.326 8.50163 32.6344 18.9721 32.6344C29.4425 32.6344 37.9441 25.326 37.9441 16.3173ZM214.778 2.80427C219.73 2.80427 224.771 4.95205 224.562 10.9778H217.761C217.761 9.39676 216.836 7.60694 214.539 7.60694C212.242 7.60694 209.528 9.3371 209.051 14.2889C208.573 19.2408 209.2 23.0292 213.227 23.0292C216.717 23.0292 217.403 20.0163 217.463 19.4496H224.204C224.204 22.1343 221.997 27.6529 212.839 27.6529C203.174 27.6529 201.474 20.6129 202.249 14.0801C202.935 8.59134 206.843 2.80427 214.778 2.80427ZM226.352 3.43103L224.682 27.4146H230.797L232.468 3.43103H226.352ZM257.584 13.1557H257.525L257.286 10.6798H251.111C251.171 12.4995 251.141 13.5137 251.022 15.0052L250.157 27.4146H256.63L257.018 21.1801C257.167 18.4059 257.316 16.0195 261.462 16.0195C261.88 16.0195 262.327 16.0195 262.775 16.0493L263.163 10.7097C261.075 10.7097 259.195 11.0676 257.584 13.1557ZM201.802 14.0505H193.718L191.123 19.2708H199.207L201.802 14.0505ZM181.159 35.4688H175.342L179.101 27.6831L172.956 10.6798H180.085L182.83 21.0608L187.215 10.6798H193.092L181.159 35.4688ZM90.7139 12.9469V10.6798L84.4197 10.7096L83.2563 27.4444H89.8786L90.5349 17.839L90.5348 17.8225C90.5326 17.4933 90.5109 14.1997 93.6969 14.1997C95.7253 14.1997 95.9342 15.9597 95.9043 17.6004L95.1884 27.4146H101.632L102.258 17.839C102.26 17.823 102.262 17.788 102.264 17.737V17.7367V17.7365V17.7363C102.289 17.1214 102.406 14.1997 105.241 14.1997C107.359 14.1997 107.478 16.0194 107.389 17.6004L106.703 27.4146H113.087L113.892 16.2282C114.131 12.5292 111.595 10.2025 107.956 10.2025C105.42 10.2621 103.123 11.2465 101.841 13.2452C101.393 11.5448 99.0365 10.292 96.7694 10.292C95.1884 10.292 92.623 10.5008 90.7735 12.9469H90.7139ZM77.2007 10.6798H83.1668L82.0034 27.4146H76.0373L77.2007 10.6798ZM59.3622 14.0804L67.7445 3.43103H75.6794L66.8496 13.7225L75.2319 27.4146H66.8198L59.3622 14.0804ZM52.9487 3.43103H59.9588L58.2883 27.4146H51.2484L52.9487 3.43103ZM143.335 24.3123C140.948 24.3123 140.441 22.433 140.62 20.136V20.1659H152.492C153.119 14.2595 150.971 10.3219 144.259 10.2025C139.218 10.1131 134.982 13.2452 134.624 18.5252C134.206 24.8492 136.861 27.6831 143.663 27.6831C145.542 27.6831 147.302 27.5041 148.823 26.5794C150.494 25.6546 151.926 24.0736 152.045 22.0452H146.198C146.198 23.1489 145.095 24.3123 143.335 24.3123ZM146.079 14.4683C146.526 15.1842 146.735 16.0791 146.676 16.974V16.9442H140.918C141.217 15.0649 141.783 13.4839 143.991 13.3944C144.945 13.3347 145.631 13.7822 146.079 14.4683ZM116.04 3.43103H122.304L121.648 12.9767H121.767C123.02 11.4852 124.78 10.2323 127.047 10.2323C132.178 10.2323 134.147 14.7367 133.849 18.7936C133.58 22.9102 131.402 27.6234 125.705 27.6234C123.766 27.6234 121.916 26.5495 121.051 25.3265H120.932L120.544 27.3549H114.399L116.04 3.43103ZM121.051 19.2709C120.962 21.2994 121.469 24.1929 123.766 24.1929C126.659 24.1929 127.375 21.2994 127.495 18.9726C127.584 16.9143 127.196 13.8716 124.72 13.9015C121.558 13.9015 121.141 17.0635 121.051 19.2709ZM166.93 3.43103L165.26 27.4146H171.375L173.045 3.43103H166.93ZM160.099 13.1557H160.159C161.77 11.0676 163.649 10.7097 165.707 10.7097L165.319 16.0493C164.902 16.0195 164.454 16.0195 164.037 16.0195C159.89 16.0195 159.741 18.4059 159.592 21.1801L159.204 27.4146H152.731L153.596 15.0052C153.715 13.5137 153.745 12.4995 153.686 10.6798H159.86L160.099 13.1557ZM275.841 10.6798L269.898 18.0782L270.919 3.43103H264.595L262.924 27.4146H269.248L269.894 18.1431L274.886 27.4146H282.642L276.557 17.7496L283 10.6798H275.841ZM242.759 25.3562H242.818L243.176 27.4145H249.143C249.053 25.4159 249.053 24.6702 249.113 23.9841L249.59 15.9597C249.858 11.8431 245.712 10.1428 242.311 10.1428C240.462 10.1428 238.284 10.3218 236.494 11.1272C234.734 11.873 233.78 13.3346 233.661 15.5123H239.418C239.448 14.7068 239.865 13.0065 241.655 13.0065C243.864 13.0065 243.699 14.9296 243.574 16.3824C243.559 16.558 243.544 16.7268 243.534 16.8844H241.536C235.48 16.8844 232.08 19.0322 232.08 22.3434C232.08 25.2966 233.72 27.5339 237.688 27.5339C240.134 27.5339 241.416 26.6091 242.759 25.3562ZM243.355 19.2501C243.206 21.4857 243.023 24.2227 240.074 24.2227C238.881 24.2227 238.046 23.2681 238.105 22.0153C238.195 20.8519 238.911 20.0763 239.865 19.599C240.66 19.2283 241.736 19.2337 242.907 19.2395C243.055 19.2403 243.205 19.241 243.355 19.241L243.355 19.2501ZM77.7973 3.43103H83.7634L83.4651 7.75642H77.499L77.7973 3.43103Z" clip-rule="evenodd" fill-rule="evenodd"></path>
</svg>
