<svg xmlns="http://www.w3.org/2000/svg" fill="none" viewBox="0 0 149 44" height="44" width="149">
<path fill="black" d="M22.662 0C10.4046 0 0.467529 9.84991 0.467529 22.0001C0.467529 34.1509 10.4046 44 22.662 44C34.9207 44 44.8566 34.1509 44.8566 22.0001C44.8566 9.85069 34.9207 0.00105085 22.6617 0.00105085L22.662 0ZM32.8402 31.7305C32.4426 32.3768 31.5892 32.5817 30.9373 32.185C25.7262 29.0298 19.1662 28.3152 11.4406 30.0649C10.6961 30.233 9.95402 29.7707 9.7844 29.0324C9.61399 28.2942 10.0786 27.5586 10.8249 27.3905C19.2794 25.4758 26.5314 26.3002 32.3817 29.8442C33.0336 30.2409 33.2404 31.0842 32.8402 31.7305ZM35.5567 25.7401C35.0558 26.5472 33.9904 26.802 33.1768 26.3055C27.2109 22.6706 18.1169 21.6179 11.0605 23.7411C10.1454 24.0151 9.17881 23.5039 8.90105 22.5983C8.62542 21.6912 9.14144 20.7349 10.055 20.4591C18.1154 18.0347 28.1359 19.2091 34.9869 23.3823C35.8006 23.8788 36.0576 24.9349 35.5567 25.7404V25.7401ZM35.79 19.5023C28.6368 15.2907 16.835 14.9035 10.0054 16.9581C8.90874 17.2878 7.74897 16.6741 7.41662 15.587C7.08427 14.4994 7.70285 13.3506 8.80034 13.0201C16.6402 10.6609 29.6731 11.1167 37.9086 15.963C38.8972 16.5433 39.2205 17.8062 38.6348 18.7827C38.0517 19.7605 36.7743 20.0828 35.791 19.5023H35.79ZM60.8512 20.3093C57.0189 19.4035 56.3377 18.7677 56.3377 17.4318C56.3377 16.1697 57.5357 15.3204 59.3193 15.3204C61.0473 15.3204 62.7594 15.9653 64.5563 17.2931C64.6093 17.3333 64.6782 17.3493 64.7445 17.3388C64.8134 17.3288 64.8717 17.2923 64.9115 17.2374L66.7826 14.6229C66.8594 14.5152 66.8382 14.3667 66.7349 14.2845C64.5961 12.584 62.1896 11.7572 59.375 11.7572C55.2379 11.7572 52.3464 14.2186 52.3464 17.7402C52.3464 21.5167 54.8403 22.8539 59.1497 23.8861C62.8151 24.7234 63.4352 25.4249 63.4352 26.6785C63.4352 28.0683 62.1843 28.9326 60.1701 28.9326C57.9332 28.9326 56.1072 28.1839 54.0664 26.4342C54.0161 26.3895 53.9472 26.3712 53.8836 26.3738C53.8147 26.379 53.7537 26.4106 53.7113 26.4605L51.6123 28.9352C51.5248 29.0403 51.5354 29.1927 51.6361 29.282C54.0108 31.3837 56.9314 32.4924 60.0853 32.4924C64.5431 32.4924 67.424 30.078 67.424 26.3396C67.4319 23.1852 65.5263 21.4382 60.8592 20.3127L60.8512 20.3093ZM77.511 16.563C75.5789 16.563 73.9941 17.3175 72.6848 18.8636V17.1234C72.6848 16.986 72.5735 16.8741 72.4357 16.8741H69.0035C68.8657 16.8741 68.7544 16.986 68.7544 17.1234V36.4593C68.7544 36.596 68.8657 36.7089 69.0035 36.7089H72.4357C72.5735 36.7089 72.6848 36.596 72.6848 36.4593V30.3565C73.9941 31.8093 75.5789 32.5213 77.511 32.5213C81.1022 32.5213 84.7384 29.7812 84.7384 24.5429C84.7437 19.3036 81.1075 16.5628 77.5137 16.5628L77.511 16.563ZM80.747 24.5429C80.747 27.2092 79.0906 29.0718 76.7159 29.0718C74.3704 29.0718 72.6 27.1251 72.6 24.5429C72.6 21.9605 74.3704 20.0143 76.7159 20.0143C79.0508 20.014 80.747 21.9182 80.747 24.5427V24.5429ZM94.0542 16.563C89.4294 16.563 85.8064 20.0928 85.8064 24.5999C85.8064 29.0587 89.4056 32.5502 93.9985 32.5502C98.6392 32.5502 102.273 29.0324 102.273 24.5429C102.273 20.0687 98.6631 16.5635 94.0542 16.5635V16.563ZM94.0542 29.0981C91.5947 29.0981 89.7395 27.1383 89.7395 24.5416C89.7395 21.9331 91.5311 20.0403 93.9985 20.0403C96.4739 20.0403 98.3397 21.9993 98.3397 24.5986C98.3397 27.2066 96.5375 29.0981 94.0542 29.0981ZM112.148 16.8741H108.371V13.0474C108.371 12.9103 108.26 12.7983 108.122 12.7983H104.69C104.552 12.7983 104.438 12.9103 104.438 13.0474V16.8741H102.79C102.652 16.8741 102.54 16.986 102.54 17.1234V20.0466C102.54 20.1837 102.652 20.2959 102.79 20.2959H104.438V27.8607C104.438 30.9161 105.973 32.4661 109.002 32.4661C110.232 32.4661 111.252 32.2139 112.214 31.6727C112.294 31.6307 112.341 31.5466 112.341 31.4573V28.6725C112.341 28.5885 112.296 28.507 112.222 28.4623C112.148 28.4151 112.055 28.4124 111.978 28.4518C111.318 28.7802 110.68 28.9326 109.964 28.9326C108.864 28.9326 108.371 28.4361 108.371 27.3274V20.2972H112.148C112.286 20.2972 112.397 20.1853 112.397 20.0479V17.125C112.402 16.9876 112.291 16.8756 112.15 16.8756L112.148 16.8741ZM125.304 16.889V16.4191C125.304 15.0364 125.839 14.4198 127.037 14.4198C127.753 14.4198 128.328 14.5606 128.972 14.7734C129.051 14.7981 129.134 14.7858 129.197 14.7387C129.263 14.6917 129.301 14.6163 129.301 14.5364V11.6702C129.301 11.5607 129.232 11.4638 129.123 11.4314C128.445 11.231 127.575 11.0253 126.271 11.0253C123.104 11.0253 121.427 12.7944 121.427 16.1395V16.8594H119.778C119.64 16.8594 119.526 16.9713 119.526 17.1084V20.0466C119.526 20.1837 119.64 20.2959 119.778 20.2959H121.427V31.9617C121.427 32.1009 121.54 32.2113 121.678 32.2113H125.108C125.248 32.2113 125.36 32.1009 125.36 31.9617V20.2967H128.564L133.472 31.9617C132.916 33.1859 132.367 33.4303 131.62 33.4303C131.015 33.4303 130.377 33.2516 129.727 32.8969C129.666 32.8654 129.592 32.8602 129.528 32.8786C129.462 32.9022 129.407 32.9495 129.38 33.0125L128.217 35.5425C128.161 35.6633 128.209 35.8026 128.325 35.8656C129.539 36.5171 130.634 36.7956 131.988 36.7956C134.522 36.7956 135.924 35.6239 137.156 32.4766L143.109 17.2295C143.14 17.1528 143.13 17.0661 143.082 16.9981C143.037 16.9306 142.96 16.8898 142.878 16.8898H139.305C139.197 16.8898 139.101 16.9574 139.067 17.0569L135.407 27.4168L131.4 17.0501C131.362 16.9537 131.27 16.8898 131.166 16.8898H125.304V16.889ZM117.676 16.8741H114.244C114.106 16.8741 113.992 16.986 113.992 17.1234V31.9617C113.992 32.1009 114.106 32.2113 114.244 32.2113H117.676C117.814 32.2113 117.928 32.1009 117.928 31.9617V17.1244C117.928 16.987 117.817 16.8751 117.676 16.8751V16.8741ZM115.98 10.1173C114.621 10.1173 113.518 11.2081 113.518 12.5556C113.518 13.9038 114.621 14.9959 115.98 14.9959C117.34 14.9959 118.44 13.9038 118.44 12.5556C118.44 11.2084 117.337 10.1173 115.98 10.1173ZM146.04 21.6452C144.683 21.6452 143.625 20.5641 143.625 19.2514C143.625 17.9386 144.696 16.8452 146.053 16.8452C147.41 16.8452 148.468 17.926 148.468 19.2377C148.468 20.5505 147.397 21.6452 146.04 21.6452ZM146.053 17.0832C144.815 17.0832 143.88 18.0579 143.88 19.2514C143.88 20.4443 144.81 21.4059 146.04 21.4059C147.278 21.4059 148.213 20.432 148.213 19.2377C148.213 18.0447 147.283 17.0832 146.053 17.0832ZM146.588 19.4839L147.272 20.4317H146.694L146.08 19.5622H145.552V20.4317H145.07V17.9191H146.199C146.79 17.9191 147.177 18.2178 147.177 18.7207C147.179 19.1326 146.938 19.3843 146.591 19.4839H146.588ZM146.18 18.3503H145.552V19.145H146.18C146.493 19.145 146.681 18.9929 146.681 18.7472C146.681 18.4887 146.493 18.3503 146.18 18.3503Z"></path>
</svg>
